<svg width="502" height="512" viewBox="0 0 502 512" fill="none" xmlns="http://www.w3.org/2000/svg">
<path d="M407.41 0H94.589C42.531 0 0.33197 42.201 0.33197 94.257V299.429C0.33197 351.486 42.533 393.686 94.589 393.686H139.483C141.619 393.686 143.35 395.417 143.35 397.553V498.76C143.35 510.726 157.987 516.528 166.184 507.81L272.372 394.904C273.103 394.126 274.123 393.686 275.19 393.686H407.41C459.467 393.686 501.667 351.485 501.667 299.429V94.257C501.667 42.201 459.466 0 407.41 0Z" fill="#55BFEC"/>
<path d="M183.005 358.509C183.005 356.26 181.329 354.437 179.261 354.437H135.799C85.403 354.437 44.549 309.998 44.549 255.18V39.123C44.549 29.847 45.723 20.87 47.91 12.353C19.489 28.587 0.33197 59.184 0.33197 94.257V299.429C0.33197 351.485 42.533 393.686 94.589 393.686H139.483C141.619 393.686 143.35 395.418 143.35 397.553V498.76C143.35 510.726 157.987 516.528 166.184 507.81L183.004 489.925V358.509H183.005Z" fill="#83C4F2"/>
<path d="M356.908 122.325C332.977 98.394 294.177 98.394 270.245 122.325L256.727 135.843C253.504 139.066 248.277 139.066 245.054 135.843L231.752 122.541C207.821 98.61 169.021 98.61 145.089 122.541C121.158 146.472 121.158 185.272 145.089 209.204L245.062 309.177C248.285 312.4 253.512 312.4 256.735 309.177L356.907 208.988C380.839 185.056 380.839 146.257 356.908 122.325Z" fill="#EC5569"/>
<path d="M356.908 122.325C332.977 98.394 294.177 98.394 270.245 122.325L256.727 135.843C253.504 139.066 248.277 139.066 245.054 135.843L231.752 122.541C207.821 98.61 169.021 98.61 145.089 122.541C121.158 146.472 121.158 185.272 145.089 209.204L245.062 309.177C248.285 312.4 253.512 312.4 256.735 309.177L356.907 208.988C380.839 185.056 380.839 146.257 356.908 122.325Z" fill="#FBF10F"/>
<path d="M177.145 209.204C153.214 185.273 153.214 146.473 177.145 122.541C184.995 114.691 194.449 109.433 204.448 106.734C183.962 101.202 161.17 106.46 145.09 122.541C121.159 146.472 121.159 185.272 145.09 209.204L245.063 309.177C248.286 312.4 253.513 312.4 256.736 309.177L266.926 298.985L177.145 209.204Z" fill="#F0FF93"/>
</svg>
