<svg width="512" height="512" viewBox="0 0 512 512" fill="none" xmlns="http://www.w3.org/2000/svg">
<rect width="512" height="512" fill="#E5E5E5"/>
<g clip-path="url(#clip0)">
<path d="M412.41 0H99.589C47.531 0 5.332 42.201 5.332 94.257V299.429C5.332 351.486 47.533 393.686 99.589 393.686H144.483C146.619 393.686 148.35 395.417 148.35 397.553V498.76C148.35 510.726 162.987 516.528 171.184 507.81L277.372 394.904C278.103 394.126 279.123 393.686 280.19 393.686H412.41C464.467 393.686 506.667 351.485 506.667 299.429V94.257C506.667 42.201 464.466 0 412.41 0Z" fill="#55BFEC"/>
<path d="M188.005 358.509C188.005 356.26 186.329 354.437 184.261 354.437H140.799C90.403 354.437 49.549 309.998 49.549 255.18V39.123C49.549 29.847 50.723 20.87 52.91 12.353C24.489 28.587 5.332 59.184 5.332 94.257V299.429C5.332 351.485 47.533 393.686 99.589 393.686H144.483C146.619 393.686 148.35 395.418 148.35 397.553V498.76C148.35 510.726 162.987 516.528 171.184 507.81L188.004 489.925V358.509H188.005Z" fill="#83C4F2"/>
<path d="M361.908 122.325C337.977 98.394 299.177 98.394 275.245 122.325L261.727 135.843C258.504 139.066 253.277 139.066 250.054 135.843L236.752 122.541C212.821 98.61 174.021 98.61 150.089 122.541C126.158 146.472 126.158 185.272 150.089 209.204L250.062 309.177C253.285 312.4 258.512 312.4 261.735 309.177L361.907 208.988C385.839 185.056 385.839 146.257 361.908 122.325Z" fill="#EC5569"/>
<path d="M361.908 122.325C337.977 98.394 299.177 98.394 275.245 122.325L261.727 135.843C258.504 139.066 253.277 139.066 250.054 135.843L236.752 122.541C212.821 98.61 174.021 98.61 150.089 122.541C126.158 146.472 126.158 185.272 150.089 209.204L250.062 309.177C253.285 312.4 258.512 312.4 261.735 309.177L361.907 208.988C385.839 185.056 385.839 146.257 361.908 122.325Z" fill="#FBF10F"/>
<path d="M182.145 209.204C158.214 185.273 158.214 146.473 182.145 122.541C189.995 114.691 199.449 109.433 209.448 106.734C188.962 101.202 166.17 106.46 150.09 122.541C126.159 146.472 126.159 185.272 150.09 209.204L250.063 309.177C253.286 312.4 258.513 312.4 261.736 309.177L271.926 298.985L182.145 209.204Z" fill="#F0FF93"/>
</g>
<defs>
<clipPath id="clip0">
<rect width="511.999" height="511.999" fill="white"/>
</clipPath>
</defs>
</svg>
